
<svg version="1.0" xmlns="http://www.w3.org/2000/svg"
 width="152.000000pt" height="159.000000pt" viewBox="0 0 152.000000 159.000000"
 preserveAspectRatio="xMidYMid meet">
<g transform="translate(0.000000,159.000000) scale(0.100000,-0.100000)"
fill="#fff" stroke="none">
<path d="M648 1509 c-77 -11 -187 -50 -256 -91 -93 -54 -220 -189 -270 -285
-82 -159 -105 -349 -62 -517 88 -346 434 -583 785 -538 176 23 295 82 425 212
144 143 210 302 210 505 0 190 -64 353 -192 490 -167 179 -398 260 -640 224z
m222 -93 c400 -73 627 -477 479 -856 -85 -218 -283 -365 -532 -395 l-57 -7 2
273 3 274 62 0 c34 0 64 3 67 6 5 5 26 124 26 151 0 14 -12 18 -77 20 l-78 3
0 73 c0 93 17 112 104 112 l56 0 -2 37 c-1 21 -2 62 -2 92 l-1 54 -96 -6
c-124 -8 -174 -31 -211 -95 -24 -40 -28 -60 -33 -157 l-5 -110 -53 -3 -53 -3
3 -87 3 -87 50 0 50 0 3 -252 c2 -211 0 -253 -12 -253 -25 0 -90 31 -158 77
-216 143 -322 417 -258 667 72 281 317 476 610 484 19 1 69 -5 110 -12z"/>
</g>
</svg>
