
<svg version="1.0" xmlns="http://www.w3.org/2000/svg"
 width="288.000000pt" height="216.000000pt" viewBox="0 0 250.000000 210.000000"
 preserveAspectRatio="xMidYMid meet">
<g transform="translate(0.000000,216.000000) scale(0.100000,-0.100000)"
fill="#fff" stroke="none">
<path d="M1250 2036 c-195 -42 -357 -131 -500 -276 -111 -111 -175 -212 -224
-351 -47 -130 -60 -223 -53 -376 11 -262 107 -475 295 -655 167 -159 351 -244
579 -267 605 -62 1124 457 1062 1062 -42 405 -324 740 -714 847 -102 28 -345
37 -445 16z m555 -389 c67 -22 127 -67 163 -125 54 -84 57 -109 57 -442 0
-333 -3 -358 -58 -444 -34 -54 -108 -108 -177 -128 -64 -19 -636 -19 -700 0
-64 19 -135 67 -170 115 -57 78 -63 115 -68 416 -5 365 9 442 96 529 92 92
146 102 517 98 237 -2 299 -5 340 -19z"/>
<path d="M1106 1545 c-57 -20 -88 -46 -116 -96 l-25 -44 0 -325 0 -325 25 -45
c16 -28 43 -55 74 -75 l49 -30 326 0 326 0 47 28 c31 18 57 44 75 75 l28 47 0
326 0 326 -30 49 c-20 31 -47 58 -75 74 l-45 25 -310 2 c-248 2 -318 0 -349
-12z m699 -105 c24 -27 16 -79 -17 -103 -23 -17 -31 -18 -57 -8 -16 7 -34 25
-41 40 -29 71 63 128 115 71z m-259 -77 c67 -23 154 -110 177 -177 40 -117 14
-231 -72 -317 -123 -122 -299 -122 -422 0 -86 86 -112 200 -72 317 22 64 110
154 173 177 60 21 155 21 216 0z"/>
<path d="M1375 1265 c-83 -29 -145 -132 -130 -214 14 -77 73 -142 146 -161
161 -44 300 132 224 281 -31 58 -116 110 -180 109 -11 -1 -38 -7 -60 -15z"/>
</g>
</svg>
