
<svg version="1.0" xmlns="http://www.w3.org/2000/svg"
 width="100.000000pt" height="50.000000pt" viewBox="0 0 340.000000 270.000000"
 preserveAspectRatio="xMidYMid meet">
<g transform="translate(0.000000,270.000000) scale(0.100000,-0.100000)"
fill="#3dcfd3" stroke="none">
<path d="M730 2392 c0 -44 12 -52 81 -52 56 0 133 -27 161 -57 48 -51 50 -81
52 -618 l1 -500 -147 -3 c-88 -1 -148 -7 -148 -12 0 -6 8 -10 18 -10 1833 -3
1917 -3 1917 9 0 9 -80 12 -337 11 l-336 0 -46 59 c-25 33 -46 62 -46 64 0 3
21 10 48 16 204 52 378 227 427 432 38 163 3 328 -101 470 -63 87 -198 172
-326 206 -54 14 -141 17 -640 20 l-578 4 0 -39z m350 -70 c14 -10 34 -36 45
-58 19 -38 20 -59 20 -569 l0 -530 -40 0 -40 0 -5 535 c-3 294 -9 544 -14 555
-5 11 -25 37 -45 59 l-36 39 45 -7 c25 -4 56 -15 70 -24z m660 11 c77 -18 166
-87 217 -167 82 -128 102 -385 44 -551 -42 -120 -131 -200 -272 -246 -65 -21
-93 -24 -229 -24 l-155 0 -2 370 c0 204 3 401 8 439 20 156 85 201 279 190 47
-3 96 -8 110 -11z m204 -28 c95 -45 168 -144 202 -275 23 -87 23 -273 0 -359
-41 -160 -144 -269 -290 -310 -54 -14 -56 -7 -6 19 55 28 135 103 165 155 38
64 55 156 55 295 0 224 -42 344 -156 449 -57 52 -62 59 -36 52 16 -5 46 -17
66 -26z m-380 -1086 c25 -22 46 -45 46 -50 0 -6 -54 -8 -132 -7 l-133 3 -3 48
-3 47 89 0 89 0 47 -41z"/>
<path d="M1603 852 c-688 -2 -873 -5 -873 -15 0 -9 36 -12 147 -12 l148 0 -3
-155 c-3 -177 -12 -222 -51 -261 -31 -31 -75 -44 -173 -54 l-68 -7 0 -39 0
-39 450 0 450 0 0 38 0 39 -73 10 c-40 6 -95 20 -121 31 -39 18 -50 29 -68 69
-19 42 -22 67 -22 208 l-1 160 251 3 251 2 68 -102 c175 -264 268 -369 374
-421 64 -31 69 -32 223 -35 l158 -4 0 41 c0 38 -3 42 -42 62 -67 34 -143 113
-265 277 -62 84 -116 159 -120 167 -5 13 23 15 211 13 162 -3 216 0 216 9 0
17 -86 18 -1067 15z m-458 -207 c0 -201 -7 -233 -59 -264 -17 -10 -49 -22 -71
-26 l-40 -7 27 29 c51 53 58 87 58 271 0 93 3 172 7 176 4 4 23 6 43 4 l35 -3
0 -180z m951 58 c119 -174 195 -266 276 -331 37 -31 66 -57 64 -59 -8 -9 -116
22 -153 44 -73 42 -168 148 -272 303 -56 82 -101 154 -101 159 0 6 21 11 49
11 l50 0 87 -127z"/>
</g>
</svg>
