<svg version="1.0" xmlns="http://www.w3.org/2000/svg"
 width="225.000000pt" height="225.000000pt" viewBox="0 0 225.000000 225.000000"
 preserveAspectRatio="xMidYMid meet">
<g transform="translate(0.000000,225.000000) scale(0.100000,-0.100000)"
fill="#fff" stroke="none">
<path d="M966 2099 c-464 -64 -831 -361 -937 -759 -32 -120 -32 -310 0 -430
98 -367 417 -649 839 -742 137 -30 377 -30 514 0 422 93 741 375 839 742 32
120 32 310 0 430 -97 365 -420 652 -834 741 -108 23 -321 32 -421 18z m94
-309 l0 -170 -27 0 c-36 0 -186 25 -240 39 l-42 11 37 63 c48 81 135 167 202
200 30 15 58 27 62 27 4 0 8 -76 8 -170z m220 132 c60 -34 137 -115 182 -190
l37 -62 -42 -11 c-54 -14 -204 -39 -239 -39 l-28 0 0 171 0 170 23 -6 c12 -4
42 -19 67 -33z m-852 -261 c15 -10 51 -31 81 -45 44 -23 52 -31 48 -49 -37
-162 -48 -219 -54 -289 l-8 -83 -175 0 -175 0 3 35 c6 58 61 210 99 273 43 71
129 177 144 177 6 0 23 -8 37 -19z m1485 -33 c61 -73 111 -154 142 -230 29
-74 56 -189 46 -201 -4 -4 -84 -6 -177 -5 l-169 3 -8 83 c-6 70 -17 127 -54
289 -4 18 4 26 53 52 33 16 68 36 79 45 31 24 40 20 88 -36z m-955 -139 l103
-12 -3 -141 -3 -141 -210 0 -210 0 3 50 c4 56 37 231 51 268 l10 25 78 -19
c43 -10 124 -24 181 -30z m621 -47 c25 -106 41 -234 32 -245 -4 -4 -99 -6
-212 -5 l-204 3 -3 141 -3 140 103 12 c57 7 137 21 178 31 41 9 78 16 82 14 3
-2 16 -43 27 -91z m-1076 -470 c6 -70 17 -127 54 -289 4 -18 -4 -26 -53 -52
-33 -17 -72 -38 -87 -48 l-29 -18 -40 45 c-58 64 -122 166 -152 241 -27 67
-57 188 -49 202 2 4 82 6 176 5 l172 -3 8 -83z m555 -58 l3 -141 -103 -12
c-57 -6 -138 -20 -181 -30 -42 -10 -79 -16 -81 -12 -20 32 -70 315 -59 334 2
4 97 6 211 5 l207 -3 3 -141z m555 139 c8 -13 -21 -203 -41 -273 -10 -36 -23
-64 -29 -63 -100 20 -232 43 -283 50 l-65 8 -3 129 c-1 72 0 136 2 143 4 10
51 13 210 13 113 0 207 -3 209 -7z m490 0 c8 -14 -22 -137 -49 -203 -33 -78
-96 -178 -152 -240 l-40 -45 -29 18 c-15 10 -54 31 -87 48 -49 26 -57 34 -53
52 37 161 48 216 53 278 3 41 7 80 10 87 2 9 46 12 173 12 93 0 172 -3 174 -7z
m-1043 -594 l0 -170 -22 6 c-82 25 -189 120 -250 223 l-37 62 42 11 c67 18
178 37 225 38 l42 1 0 -171z m320 150 c25 -6 62 -14 82 -20 l37 -9 -37 -62
c-61 -103 -168 -198 -249 -223 l-23 -6 0 172 0 172 73 -7 c39 -4 92 -12 117
-17z"/>
</g>
</svg>
